<?xml version="1.0" standalone="no"?>
<!DOCTYPE svg PUBLIC "-//W3C//DTD SVG 20010904//EN"
 "http://www.w3.org/TR/2001/REC-SVG-20010904/DTD/svg10.dtd">
<svg version="1.0" xmlns="http://www.w3.org/2000/svg"
 width="70.000000pt" height="70.000000pt" viewBox="0 0 70.000000 70.000000"
 preserveAspectRatio="xMidYMid meet">
<metadata>
Created by potrace 1.14, written by Peter Selinger 2001-2017
</metadata>
<g transform="translate(0.000000,70.000000) scale(0.100000,-0.100000)"
fill="#000000" stroke="none">
<path d="M31 680 c-19 -14 -19 -29 -16 -300 4 -312 5 -323 26 -348 14 -16 42
-18 312 -17 215 0 299 3 308 12 17 17 39 153 25 153 -7 0 -7 3 1 8 12 7 9 53
-3 74 -3 4 0 8 6 8 10 0 6 53 -6 72 -3 4 0 8 6 8 10 0 6 53 -6 72 -3 4 0 8 6
8 10 0 6 53 -6 72 -3 4 0 8 6 8 10 0 6 53 -6 72 -3 4 0 8 6 8 10 0 7 40 -6 83
-6 20 18 19 -342 21 -246 1 -295 -1 -311 -14z"/>
</g>
</svg>
